<svg width="16" height="17" viewBox="0 0 16 17" fill="none" xmlns="http://www.w3.org/2000/svg">
<g clip-path="url(#clip0)">
<path d="M14.2907 3.3244H13.1989C13.3429 3.08087 13.4379 2.80752 13.465 2.51842C13.5516 1.5945 13.0962 0.766261 12.3208 0.399065C11.6082 0.0615423 10.8073 0.199519 10.2306 0.758374L8.85185 2.09338C8.58335 1.77961 8.19736 1.58241 7.76898 1.58241C7.33984 1.58241 6.95324 1.78024 6.68467 2.09497L5.30421 0.758217C4.72656 0.199362 3.92599 0.0619179 3.21364 0.399253C2.4385 0.766481 1.983 1.595 2.06983 2.51889C2.09699 2.80777 2.19197 3.081 2.33596 3.3244H1.24723C0.706941 3.3244 0.268982 3.79235 0.268982 4.36958V5.93737C0.268982 6.22597 0.487976 6.45998 0.758122 6.45998H14.7799C15.05 6.45998 15.269 6.226 15.269 5.93737V4.36958C15.269 3.79235 14.831 3.3244 14.2907 3.3244ZM6.30159 3.15021V3.3244H4.00052C3.39256 3.3244 2.91408 2.71884 3.06592 2.04254C3.13281 1.74471 3.33402 1.49083 3.59426 1.3623C3.95163 1.18583 4.34749 1.24248 4.64763 1.53274L6.302 3.13481C6.30191 3.13997 6.30159 3.14504 6.30159 3.15021ZM12.4944 2.37966C12.4579 2.92283 11.9987 3.32446 11.489 3.32446H9.23637V3.15027C9.23637 3.1441 9.23602 3.138 9.23596 3.13183C9.61073 2.76886 10.4237 1.98157 10.8647 1.55452C11.1153 1.31184 11.466 1.19856 11.7901 1.30186C12.2552 1.4501 12.5284 1.87273 12.4944 2.37966Z" fill="#A4A4A4"/>
<path d="M1.15399 7.5192V15.184C1.15399 15.7612 1.59195 16.2291 2.13224 16.2291H6.69746V7.5192H1.15399Z" fill="#A4A4A4"/>
<path d="M8.65405 7.5192V16.2291H13.2193C13.7596 16.2291 14.1975 15.7612 14.1975 15.184V7.5192H8.65405Z" fill="#A4A4A4"/>
</g>
<defs>
<clipPath id="clip0">
<rect width="15" height="16.0263" fill="white" transform="translate(0.175964 0.216858)"/>
</clipPath>
</defs>
</svg>
