<svg width="302" height="84" viewBox="0 0 302 84" fill="none" xmlns="http://www.w3.org/2000/svg">
<path fill-rule="evenodd" clip-rule="evenodd" d="M219.657 38.1978L213.283 47.687L223.524 66.7922C219.797 69.0416 212.743 72.2582 208.725 63.6931L204.836 55.4056L204.795 61.3273C204.746 68.5649 198.422 69.4775 193.921 69.2397L193.854 38.0082C193.84 31.5448 197.285 29.814 204.978 29.814L204.906 41.7381L210.554 32.317C214.718 25.3727 223.879 31.9115 219.657 38.1978Z" fill="white"/>
<path fill-rule="evenodd" clip-rule="evenodd" d="M183.897 39.6898L174.8 52.7234L175.439 56.0405C177.293 65.6659 174.8 69.2051 162.214 69.2051V52.7234L152.777 39.5389C148.057 31.2975 159.622 24.0379 164.575 33.5962L168.508 41.187L173.226 32.9446C177.92 24.7472 188.958 32.9446 183.897 39.6898Z" fill="white"/>
<path fill-rule="evenodd" clip-rule="evenodd" d="M159.068 56.0185C159.068 65.9079 156.119 68.8028 151.204 69.2051H133.9V29.6484C141.765 29.6484 148.769 29.683 148.057 37.8898L146.484 56.0185H159.068Z" fill="white"/>
<path fill-rule="evenodd" clip-rule="evenodd" d="M130.754 29.6484C130.881 32.9446 131.197 41.187 121.759 41.1859H118.613L118.803 46.1301H128.241C128.431 51.0754 128.622 56.0195 120.757 56.0195H119.184L119.377 61.0549C119.567 65.997 116.545 69.204 107.106 69.204L105.584 29.6484H130.754Z" fill="white"/>
<path fill-rule="evenodd" clip-rule="evenodd" d="M301.981 53.5605C302.076 56.0687 301.748 58.2763 300.987 60.1831C300.227 62.0889 299.161 63.6993 297.761 65.0037C296.369 66.2997 294.725 67.3045 292.818 68.0033C290.913 68.7105 288.851 69.1045 286.636 69.1967C285.777 69.2323 284.835 69.1495 283.807 68.9567C282.78 68.766 281.733 68.5094 280.675 68.1971C279.616 67.8849 278.592 67.5402 277.611 67.1714C276.623 66.7984 272.889 64.9712 272.126 64.6391C275.093 52.7234 282.19 57.3386 286.075 57.1908C286.414 57.1783 286.807 57.1427 287.28 57.0945C287.751 57.0473 288.196 56.9541 288.619 56.7969C289.042 56.6377 289.392 56.4166 289.686 56.1316C289.97 55.8487 290.098 55.4506 290.079 54.9341C290.066 54.5894 289.956 54.2928 289.732 54.0582C289.518 53.8245 289.242 53.6297 288.906 53.484C288.56 53.3489 288.18 53.242 287.767 53.176C287.344 53.1173 286.93 53.0691 286.526 53.0482C286.123 53.0272 285.748 53.0241 285.398 53.0387C285.051 53.0534 284.773 53.0649 284.56 53.0733C283.059 53.1351 281.681 52.9214 280.436 52.4279C279.183 51.9271 278.1 51.2031 277.179 50.2675C276.257 49.3204 275.534 48.1888 274.993 46.8698C274.451 45.5434 274.154 44.1027 274.095 42.5291C274.013 40.3666 274.351 38.421 275.117 36.6744C275.884 34.9268 276.936 33.4296 278.277 32.1755C279.624 30.9182 281.179 29.9355 282.951 29.2251C284.723 28.5043 286.569 28.1083 288.49 28.0286C289.347 27.9941 290.224 27.9951 291.138 28.0129C292.043 28.0402 292.958 28.1166 293.858 28.2476C294.767 28.3786 295.65 28.5472 296.518 28.7662C297.376 28.9925 298.201 29.2765 298.984 29.6295C298.616 36.819 298.488 38.5205 291.984 38.5215C288.733 38.5215 284.998 38.4576 285.093 41.4122C285.139 42.8078 287.018 43.0571 288.056 43.1263C289.035 43.1902 290.022 43.1577 291 43.099C293.725 42.9303 297.388 44.4904 299.317 46.5094C300.128 47.3475 300.766 48.3701 301.222 49.5697C301.67 50.7715 301.926 52.1 301.981 53.5605Z" fill="white"/>
<path fill-rule="evenodd" clip-rule="evenodd" d="M253.455 41.1377V57.6194C262.894 57.6194 266.039 37.8405 253.455 41.1377ZM272.332 47.3517C272.332 49.9752 272.018 52.3514 271.383 54.4668C270.756 56.5727 269.879 58.4565 268.753 60.1014C267.625 61.7359 266.282 63.1492 264.725 64.3311C263.169 65.515 261.468 66.4946 259.615 67.2542C257.763 68.0149 255.795 68.5712 253.7 68.9368C251.615 69.3119 249.468 69.4953 247.267 69.4953C246.443 69.4953 245.637 69.4649 244.85 69.4177C244.073 69.3706 243.266 69.2658 242.443 69.1694V31.1833C244.368 30.5191 247.078 30.2833 249.119 30.0151C251.151 29.7354 253.173 29.6002 255.186 29.6002C257.682 29.6002 259.982 30.0046 262.077 30.8124C264.18 31.6202 265.987 32.7842 267.508 34.3024C269.029 35.831 270.211 37.6886 271.061 39.8794C271.902 42.0817 272.332 44.5721 272.332 47.3517Z" fill="white"/>
<path fill-rule="evenodd" clip-rule="evenodd" d="M238.522 29.7144V56.1578C238.522 69.3423 233.803 69.3423 225.938 69.3444V39.6761C225.937 29.7867 230.657 29.7866 238.522 29.7144Z" fill="white"/>
<path fill-rule="evenodd" clip-rule="evenodd" d="M0.0178396 31.0292C-0.746122 37.4356 23.2751 35.0691 24.359 46.1318C25.4022 56.7732 10.6158 67.1785 14.6572 71.6156C18.6987 76.0528 29.6786 57.1751 37.019 58.5303C40.9711 59.259 44.2537 70.5509 48.5752 68.6715C52.8967 66.7921 46.1533 54.0079 44.6254 50.0036C36.2292 28.0006 52.1002 7.50291 48.0735 4.31094C43.6154 0.774374 39.4609 19.278 28.574 25.6511C19.0326 31.2359 0.781801 24.6228 0.0178396 31.0292ZM21.855 0C28.2549 0 33.4445 5.43998 33.4445 12.1468C33.4445 18.8537 28.2549 24.2937 21.855 24.2937C15.4559 24.2937 10.2663 18.8537 10.2663 12.1468C10.2663 5.43998 15.4559 0 21.855 0Z" fill="white"/>
<path fill-rule="evenodd" clip-rule="evenodd" d="M92.8747 34.3762C94.6914 39.286 76.1304 44.4879 77.5721 54.1963C78.3682 59.5504 93.9819 64.4965 91.5188 69.0146C89.0564 73.5319 75.765 64.9616 69.9106 68.0659C66.7585 69.7393 63.4113 84.9099 59.353 83.7549C55.2941 82.6006 60.2225 65.1903 60.5417 61.3945C62.2894 40.5345 43.8164 30.0203 47.4829 25.143C51.1485 20.2648 58.9385 35.6587 69.0683 37.9935C76.688 39.748 91.058 29.4679 92.8747 34.3762ZM72.6085 13.877C80.5401 15.861 79.7557 17.0786 85.7546 15.4253C88.341 19.697 81.9936 37.6304 69.1578 35.0337C63.6307 33.915 59.8843 28.479 60.8374 22.6382C61.7897 16.7974 67.1327 12.5065 72.6085 13.877Z" fill="white"/>
</svg>
