<svg width="14" height="15" viewBox="0 0 14 15" fill="none" xmlns="http://www.w3.org/2000/svg">
<path d="M12.332 0H1.66792C1.26827 0 0.941284 0.350339 0.941284 0.778543V14.2215C0.941284 14.6497 1.26827 15 1.66792 15H12.332C12.7317 15 13.0586 14.6497 13.0586 14.429V0.98618C13.0586 0.350388 12.7317 0 12.332 0ZM4.63833 12.8493C4.63833 13.0776 4.46396 13.2645 4.25079 13.2645H2.47277C2.25959 13.2645 2.08522 13.0776 2.08522 12.8493V11.198C2.08522 10.9696 2.25959 10.7828 2.47277 10.7828H4.25079C4.46396 10.7828 4.63833 10.9696 4.63833 11.198V12.8493ZM4.63833 9.35564C4.63833 9.58399 4.46396 9.77086 4.25079 9.77086H2.47277C2.25959 9.77086 2.08522 9.58399 2.08522 9.35564V7.70433C2.08522 7.47593 2.25959 7.28911 2.47277 7.28911H4.25079C4.46396 7.28911 4.63833 7.47593 4.63833 7.70433V9.35564ZM8.17806 12.8493C8.17806 13.0776 8.00369 13.2645 7.79052 13.2645H6.0125C5.79937 13.2645 5.62495 13.0776 5.62495 12.8493V11.198C5.62495 10.9696 5.79937 10.7828 6.0125 10.7828H7.79052C8.00369 10.7828 8.17806 10.9696 8.17806 11.198V12.8493ZM8.17806 9.35564C8.17806 9.58399 8.00369 9.77086 7.79052 9.77086H6.0125C5.79937 9.77086 5.62495 9.58399 5.62495 9.35564V7.70433C5.62495 7.47593 5.79937 7.28911 6.0125 7.28911H7.79052C8.00369 7.28911 8.17806 7.47593 8.17806 7.70433V9.35564ZM11.9516 12.8493C11.9516 13.0776 11.7772 13.2645 11.564 13.2645H9.73935C9.52622 13.2645 9.3518 13.0776 9.3518 12.8493V7.70438C9.3518 7.47598 9.52622 7.28915 9.73935 7.28915H11.564C11.7772 7.28915 11.9516 7.47598 11.9516 7.70438V12.8493ZM11.9654 4.80593C11.9654 5.09143 11.7474 5.32497 11.4809 5.32497H2.51902C2.2526 5.32497 2.03458 5.09143 2.03458 4.80593V2.34542C2.03458 2.05997 2.2526 1.82638 2.51902 1.82638H11.4809C11.7474 1.82638 11.9654 2.05997 11.9654 2.34542V4.80593Z" fill="#A4A4A4"/>
</svg>
